<?xml version="1.0" encoding="utf-8"?>
<!-- Generator: Adobe Illustrator 24.2.3, SVG Export Plug-In . SVG Version: 6.00 Build 0)  -->
<svg version="1.1" xmlns="http://www.w3.org/2000/svg" xmlns:xlink="http://www.w3.org/1999/xlink" x="0px" y="0px"
	 viewBox="0 0 857.5 1000" style="enable-background:new 0 0 857.5 1000;" xml:space="preserve">
<style type="text/css">
	.st0{fill-rule:evenodd;clip-rule:evenodd;fill:#61BB46;stroke:#61BB46;stroke-width:5.386;stroke-miterlimit:2.2408;}
	.st1{fill-rule:evenodd;clip-rule:evenodd;fill:#FDB827;}
	.st2{fill-rule:evenodd;clip-rule:evenodd;fill:#F5821F;stroke:#F5821F;stroke-width:5.386;stroke-miterlimit:2.2408;}
	.st3{fill-rule:evenodd;clip-rule:evenodd;fill:#E03A3E;stroke:#E03A3E;stroke-width:5.386;stroke-miterlimit:2.2408;}
	.st4{fill-rule:evenodd;clip-rule:evenodd;fill:#963D97;stroke:#963D97;stroke-width:5.386;stroke-miterlimit:2.2408;}
	.st5{fill-rule:evenodd;clip-rule:evenodd;fill:#009DDC;stroke:#009DDC;stroke-width:5.386;stroke-miterlimit:2.2408;}
	.st6{clip-path:url(#apple6_1_);}
	.st7{clip-path:url(#apple5_1_);}
	.st8{clip-path:url(#apple4_1_);}
	.st9{clip-path:url(#apple3_1_);}
	.st10{clip-path:url(#apple2_1_);}
	.st11{clip-path:url(#apple1_1_);}
</style>
<g id="black" inkscape:version="0.92.3 (2405546, 2018-03-11)" sodipodi:docname="Apple_Computer_Logo_rainbow.svg" xmlns:cc="http://creativecommons.org/ns#" xmlns:dc="http://purl.org/dc/elements/1.1/" xmlns:inkscape="http://www.inkscape.org/namespaces/inkscape" xmlns:rdf="http://www.w3.org/1999/02/22-rdf-syntax-ns#" xmlns:sodipodi="http://sodipodi.sourceforge.net/DTD/sodipodi-0.dtd" xmlns:svg="http://www.w3.org/2000/svg">
	<g id="clip_5_">
		<defs>
			<path id="apple6" d="M829.1,337.3l-2.8,1.6c-12.2,6.7-23.7,14.4-34.1,22.9c0.1-0.1,0.2-0.1,0.2-0.2h-4.2l-740.9,0h-3.2l0.1-0.2
				c0.3-0.5,0.7-1,1-1.5C95.8,281.6,176.3,233,255.5,233c41,0,73.6,11.7,105.2,23c28.2,10.1,54.8,19.6,84.8,19.6
				c27.7,0,51-8.9,75.7-18.2C551.3,246,585.4,233,634.7,233c69.5,0,141.4,38.1,192.4,101.9L829.1,337.3z M617.8,2.5L617.4,0
				l-2.5,0.2c-53.3,3.7-116.4,37.7-153.3,82.8c-40.6,49.5-59.3,109.2-50.1,159.7l0.4,2.1l2.2,0.1c1.5,0,2.9,0.1,4.4,0.1
				c26.7,0,55-7.5,82-21.8c13.2-7,26-15.6,37.6-25.3c11.6-9.7,22.1-20.5,31-31.9C607.9,115.8,625.7,56.2,617.8,2.5z"/>
		</defs>
		<clipPath id="apple6_1_">
			<use xlink:href="#apple6"  style="overflow:visible;"/>
		</clipPath>
		<rect id="rectangle_5_" x="-77.5" y="-50.6" class="st6" width="1012.6" height="440.9"/>
	</g>
	<g id="clip_4_">
		<defs>
			<path id="apple5" d="M792.4,361.6c-0.1,0.1-0.2,0.1-0.2,0.2c-40.6,34.6-66.3,80.2-74,127.8h-0.1l-712.8,0H2.5
				c4-43.6,19.3-93.4,41.4-128.1h3.4l740.9,0H792.4z"/>
		</defs>
		<clipPath id="apple5_1_">
			<use xlink:href="#apple5"  style="overflow:visible;"/>
		</clipPath>
		<rect id="rectangle_4_" x="-77.5" y="157.7" class="st7" width="1012.6" height="440.9"/>
	</g>
	<g id="clip_3_">
		<defs>
			<path id="apple4" d="M735.9,619.3l-729.3,0L6.3,617c-6.9-44.4-8.2-87.4-3.7-127.6l0.3-2.4l715.7,0l-0.5,3.1
				c-6.9,42.4-1.3,85.8,16.3,125.5L735.9,619.3z"/>
		</defs>
		<clipPath id="apple4_1_">
			<use xlink:href="#apple4"  style="overflow:visible;"/>
		</clipPath>
		<rect id="rectangle_3_" x="-77.5" y="-19.2" class="st8" width="1012.6" height="1038.4"/>
	</g>
	<g id="clip_2_">
		<defs>
			<path id="apple3" d="M857.5,730.9l-1.2,2.6c-1.5,3.2-2.8,6.4-4.2,9.4l-1.5,3.4h-1.7l-807,0l-0.7-1.7C24.7,702.6,13,659.7,6.3,617
				l-0.5-3.1l727.7,0l0.7,1.6c23.5,53.2,66.3,93.8,120.6,114.4L857.5,730.9z"/>
		</defs>
		<clipPath id="apple3_1_">
			<use xlink:href="#apple3"  style="overflow:visible;"/>
		</clipPath>
		<rect id="rectangle_2_" x="-77.5" y="-19.2" class="st9" width="1012.6" height="1038.4"/>
	</g>
	<g id="clip_1_">
		<defs>
			<path id="apple2" d="M853.1,740.9l-1.7,3.8c-20.8,46-32.4,68.3-59.5,109.9c-3.1,4.7-7.2,11-11.6,17.4l-0.8,1.2H778l-668.6,0.1
				l-0.8-1.2c-2.1-3.2-4.3-6.4-6.3-9.6c-24.4-37.3-44.9-77-61-117.9l-1.5-3.7h4L853.1,740.9z"/>
		</defs>
		<clipPath id="apple2_1_">
			<use xlink:href="#apple2"  style="overflow:visible;"/>
		</clipPath>
		<rect id="rectangle_1_" x="-77.5" y="-19.2" class="st10" width="1012.6" height="1038.4"/>
	</g>
	<g id="clip">
		<defs>
			<path id="apple1" d="M783.1,867.7l-2.9,4.2c-26.1,38.4-48.9,65.8-71.9,86.1c-30.9,27.4-62,41.5-92.4,41.8c-0.5,0-0.9,0-1.4,0
				c-29.9,0-49.7-9.1-70.8-18.8c-24.7-11.4-50.2-23.1-96-23.1h-1.5c-46.4,0.3-72.6,12-98,23.3c-21.5,9.6-41.8,18.7-71.9,18.7
				c-0.5,0-0.9,0-1.4,0c-72-0.7-126.8-68.8-166.5-128l-2.8-4.2h5.1L783.1,867.7z"/>
		</defs>
		<clipPath id="apple1_1_">
			<use xlink:href="#apple1"  style="overflow:visible;"/>
		</clipPath>
		<rect id="rectangle" x="-77.5" y="-19.2" class="st11" width="1012.6" height="1038.4"/>
	</g>
</g>
</svg>