<?xml version="1.0" encoding="utf-8"?>
<!-- Generator: Adobe Illustrator 24.2.3, SVG Export Plug-In . SVG Version: 6.00 Build 0)  -->
<svg version="1.1" xmlns="http://www.w3.org/2000/svg" xmlns:xlink="http://www.w3.org/1999/xlink" x="0px" y="0px"
	 viewBox="0 0 857.5 1000" style="enable-background:new 0 0 857.5 1000;" xml:space="preserve">
<style type="text/css">
	.st0{fill-rule:evenodd;clip-rule:evenodd;fill:#61BB46;stroke:#61BB46;stroke-width:5.386;stroke-miterlimit:2.2408;}
	.st1{fill-rule:evenodd;clip-rule:evenodd;fill:#FDB827;}
	.st2{fill-rule:evenodd;clip-rule:evenodd;fill:#F5821F;stroke:#F5821F;stroke-width:5.386;stroke-miterlimit:2.2408;}
	.st3{fill-rule:evenodd;clip-rule:evenodd;fill:#E03A3E;stroke:#E03A3E;stroke-width:5.386;stroke-miterlimit:2.2408;}
	.st4{fill-rule:evenodd;clip-rule:evenodd;fill:#963D97;stroke:#963D97;stroke-width:5.386;stroke-miterlimit:2.2408;}
	.st5{fill-rule:evenodd;clip-rule:evenodd;fill:#009DDC;stroke:#009DDC;stroke-width:5.386;stroke-miterlimit:2.2408;}
	.st6{clip-path:url(#apple6_1_);}
	.st7{clip-path:url(#apple5_1_);}
	.st8{clip-path:url(#apple4_1_);}
	.st9{clip-path:url(#apple3_1_);}
	.st10{clip-path:url(#apple2_1_);}
	.st11{clip-path:url(#apple1_1_);}
</style>
<g id="rainbow" inkscape:version="0.92.3 (2405546, 2018-03-11)" sodipodi:docname="Apple_Computer_Logo_rainbow.svg" xmlns:cc="http://creativecommons.org/ns#" xmlns:dc="http://purl.org/dc/elements/1.1/" xmlns:inkscape="http://www.inkscape.org/namespaces/inkscape" xmlns:rdf="http://www.w3.org/1999/02/22-rdf-syntax-ns#" xmlns:sodipodi="http://sodipodi.sourceforge.net/DTD/sodipodi-0.dtd" xmlns:svg="http://www.w3.org/2000/svg">
	<path id="path5" inkscape:connector-curvature="0" class="st0" d="M46.5,362.7c0.3-0.5,0.6-1,0.9-1.5
		c51.2-79.2,132-125.6,208-125.6c77.4,0,126,42.6,190,42.6c62.1,0,99.9-42.7,189.3-42.7c67.6,0,139.2,37,190.3,100.9
		c-14.1,7.8-26.8,16.6-38.2,26.3L46.5,362.7L46.5,362.7L46.5,362.7z"/>
	<path id="path7" inkscape:connector-curvature="0" class="st0" d="M566.9,164.3c32.5-41.9,57.2-101,48.2-161.5
		C562,6.5,499.9,40.5,463.6,84.6c-32.9,40.1-60.1,99.7-49.5,157.5C472.1,243.9,532.1,209.2,566.9,164.3L566.9,164.3z"/>
	<path id="path9" inkscape:connector-curvature="0" sodipodi:nodetypes="ccccccc" class="st1" d="M43.9,361.6
		C21.8,396.3,6.5,446,2.5,489.7l715.7,0c7.7-47.7,33.5-93.3,74.2-128L43.9,361.6L43.9,361.6L43.9,361.6z"/>
	<path id="path11" inkscape:connector-curvature="0" class="st2" d="M9,616.6C2,572,0.9,529.1,5.3,489.7l710.1,0
		c-6.9,42.7-1.1,87.2,16.5,127L9,616.6L9,616.6L9,616.6z"/>
	<path id="path13" inkscape:connector-curvature="0" class="st3" d="M43.7,743.5C26.9,700.9,15.4,658,9,616.6l722.8,0
		c22.4,50.7,63.8,93.7,122.1,115.8c-1.7,3.9-3.4,7.6-5,11.1L43.7,743.5L43.7,743.5L43.7,743.5z"/>
	<path id="path15" inkscape:connector-curvature="0" class="st4" d="M848.9,743.6c-20,44.2-31.6,67.1-59.3,109.5
		c-3.7,5.7-7.6,11.5-11.6,17.4l-667.2,0.1c-2.1-3.2-4.3-6.4-6.3-9.6c-24.9-38.2-45.1-77.7-60.7-117.4L848.9,743.6L848.9,743.6
		L848.9,743.6z"/>
	<path id="path19" inkscape:connector-curvature="0" class="st5" d="M778,870.4c-40.8,60-95.6,126.1-162.1,126.7
		c-64.9,0.6-81.5-42.4-169.5-41.9c-88,0.5-106.4,42.7-171.3,42.1c-69.4-0.6-123.2-65.5-164.3-126.8L778,870.4L778,870.4L778,870.4z"
		/>
</g>
</svg>
