<?xml version="1.0" encoding="utf-8"?>
<!-- Generator: Adobe Illustrator 24.2.3, SVG Export Plug-In . SVG Version: 6.00 Build 0)  -->
<svg version="1.1" id="svg2" xmlns:svg="http://www.w3.org/2000/svg"
	 xmlns="http://www.w3.org/2000/svg" xmlns:xlink="http://www.w3.org/1999/xlink" x="0px" y="0px" viewBox="0 0 800 500"
	 style="enable-background:new 0 0 800 500;" xml:space="preserve">
<style type="text/css">
	.st0{fill:#010101;}
	.st1{fill:#FEFEFE;}
	.st2{fill:#FFFFFF;}
</style>
<g id="n">
	<path id="path6" class="st0" d="M28.3,28.7c121.6,0,243.2,0,364.8,0c0,121.5,0,243,0,364.5c-121.6,0-243.2,0-364.8,0
		C28.3,271.7,28.2,150.2,28.3,28.7z"/>
	<path id="path8" class="st1" d="M182,53.1c44.8-11.4,94.4-2.1,132.1,24.6c19.7,13.7,36.2,31.9,48.2,52.8
		c-25.6,14.4-51.1,29.2-76.7,43.7c-4.6,2.6-9.3,5.1-13.8,8c-7.1-12.1-18.4-21.8-31.7-26.3c-8.9-3.3-18.7-3.7-28.1-2.6
		c-27.2,3.6-49.9,28.9-49.6,56.5c-1.3,24.3,15,47.8,37.7,56.1c16.9,6.6,36.7,4.5,51.9-5.2c8.2-5.1,14.9-12.4,19.9-20.6
		c17.2,10.3,34.8,19.9,52.1,30c12.8,7.2,25.5,14.7,38.3,21.8c-21.4,37.4-58,65.8-99.8,76.6c-5.2,1.6-10.6,2.2-15.9,3.5
		c-12.1,1.4-24.4,2.6-36.6,1.4c-36.9-2.1-72.7-17.8-99.8-42.9c-28.1-25.8-46.6-61.9-51-99.8c-4.9-37.8,4.7-77.3,25.7-109.1
		C107.2,87.6,142.6,62.4,182,53.1z"/>
</g>
<g id="c">
	<path id="path1984" class="st2" d="M393,28.6c121.6,0,243.2,0,364.7,0c0,121.5,0,243,0,364.5c-121.6,0-243.2,0-364.8,0
		C393,271.6,393,150.1,393,28.6z"/>
	<path id="path10" class="st0" d="M418.9,54.8c34.7,0,69.5,0.1,104.2-0.1c35,43.2,69.5,86.9,104.4,130.2c0.1-43.4,0-86.8,0-130.2
		c34.7,0.1,69.4,0.1,104.2,0c0,104.2,0,208.4,0,312.5c-34.8-0.1-69.6,0-104.3,0c-34-42.6-68.2-85-102.2-127.7
		c-0.7-0.8-1.4-1.5-2.1-2.2c0.2,43.3,0,86.6,0.1,129.9c-34.8,0.1-69.6,0-104.3,0C418.9,263.1,418.9,159,418.9,54.8z"/>
</g>
</svg>
