<?xml version="1.0" encoding="utf-8"?>
<!-- Generator: Adobe Illustrator 24.2.3, SVG Export Plug-In . SVG Version: 6.00 Build 0)  -->
<svg version="1.1" id="Layer_1" xmlns="http://www.w3.org/2000/svg" xmlns:xlink="http://www.w3.org/1999/xlink" x="0px" y="0px"
	 viewBox="0 0 576 67.3" style="enable-background:new 0 0 576 67.3;" xml:space="preserve">
<style type="text/css">
	.st0{fill:#1B1A19;}
</style>
<g>
	<path class="st0" d="M249.6,2.9h-31.1v61.6h31.1c8.6,0,16-2.9,22-8.8c6.2-5.8,9.1-13.1,9.1-21.7s-3.1-15.8-9.1-21.9
		C265.5,5.8,258.1,2.9,249.6,2.9z M263.9,47.9c-4,3.8-8.8,5.7-14.3,5.7h-20.3v-40h20.3c5.5,0,10.3,2,14.3,5.8c4,4,6,8.8,6,14.3
		C269.9,39.4,267.9,44,263.9,47.9z"/>
	<polygon class="st0" points="139.4,13.7 165,13.7 165,53.6 139.4,53.6 139.4,64.5 201.1,64.5 201.1,53.6 175.6,53.6 175.6,13.7 
		201.1,13.7 201.1,2.9 139.4,2.9 	"/>
	<polygon class="st0" points="295.8,64.5 357.6,64.5 357.6,53.6 306.5,53.6 306.5,38.9 346.9,38.9 346.9,28.2 306.5,28.2 
		306.5,13.7 357.6,13.7 357.6,2.8 295.8,2.8 	"/>
	<path class="st0" d="M402.9,0c-18.6,0-33.7,15.1-33.7,33.7s15.1,33.7,33.7,33.7c18.6,0,33.7-15.1,33.7-33.7S421.5,0,402.9,0z
		 M402.9,56.5c-12.6,0-22.9-10.3-22.9-22.9s10.3-22.9,22.9-22.9c12.6,0,22.9,10.3,22.9,22.9C425.8,46.3,415.5,56.5,402.9,56.5z"/>
</g>
</svg>
