<?xml version="1.0" encoding="utf-8"?>
<!-- Generator: Adobe Illustrator 24.2.3, SVG Export Plug-In . SVG Version: 6.00 Build 0)  -->
<svg version="1.1" id="Layer_1" xmlns="http://www.w3.org/2000/svg" xmlns:xlink="http://www.w3.org/1999/xlink" x="0px" y="0px"
	 viewBox="0 0 189.2 67.3" style="enable-background:new 0 0 189.2 67.3;" xml:space="preserve">
<style type="text/css">
	.st0{fill:#68C8C6;}
	.st1{fill:#F15D22;}
	.st2{fill:#8C5635;}
</style>
<path id="blue" class="st0" d="M28.4,67.3c0.3-21.5,17.9-38.9,39.5-38.9c21.5,0,39.1,17.4,39.4,38.9h28.4C135.4,30.2,105.1,0,67.9,0
	C30.7,0,0.3,30.2,0,67.3H28.4z"/>
<path id="orange" class="st1" d="M82,67.3c0.7-21.2,18.1-38.2,39.4-38.2s38.8,17.1,39.4,38.2h28.4c-0.6-36.8-30.8-66.7-67.8-66.7
	S54.2,30.5,53.5,67.3H82z"/>
<path id="intersect" class="st2" d="M67.9,28.4c10.5,0,20.1,4.1,27.2,10.8c7-6.3,16.3-10.2,26.4-10.2c0.7,0,1.4,0,2.2,0.1
	C116.6,19,106.9,10.9,95.5,5.9C84,10.7,74.1,18.5,66.8,28.5C67.1,28.4,67.5,28.4,67.9,28.4z"/>
</svg>
