<?xml version="1.0" encoding="utf-8"?>
<!-- Generator: Adobe Illustrator 24.2.3, SVG Export Plug-In . SVG Version: 6.00 Build 0)  -->
<svg version="1.1" id="Layer_1" xmlns="http://www.w3.org/2000/svg" xmlns:xlink="http://www.w3.org/1999/xlink" x="0px" y="0px"
	 viewBox="0 0 132 132" style="enable-background:new 0 0 132 132;" xml:space="preserve">
<style type="text/css">
	.st0{fill:#8E8E8E;}
</style>
<path id="logo" class="st0" d="M66,18c-13,0-14.7,0.1-19.8,0.3c-5.1,0.2-8.6,1-11.7,2.2c-3.2,1.2-5.8,2.9-8.5,5.5
	c-2.7,2.7-4.3,5.3-5.5,8.5c-1.2,3.1-2,6.5-2.2,11.7C18.1,51.3,18,53,18,66s0.1,14.7,0.3,19.8c0.2,5.1,1,8.6,2.2,11.7
	c1.2,3.2,2.9,5.8,5.5,8.5c2.7,2.7,5.3,4.3,8.5,5.5c3.1,1.2,6.5,2,11.7,2.2c5.1,0.2,6.8,0.3,19.8,0.3s14.7-0.1,19.8-0.3
	c5.1-0.2,8.6-1,11.7-2.2c3.2-1.2,5.8-2.9,8.5-5.5c2.7-2.7,4.3-5.3,5.5-8.5c1.2-3.1,2-6.5,2.2-11.7c0.2-5.1,0.3-6.8,0.3-19.8
	s-0.1-14.7-0.3-19.8c-0.2-5.1-1.1-8.6-2.2-11.7c-1.2-3.2-2.9-5.8-5.5-8.5c-2.7-2.7-5.3-4.3-8.5-5.5c-3.1-1.2-6.6-2-11.7-2.2
	C80.7,18.1,79,18,66,18L66,18z M61.7,26.6c1.3,0,2.7,0,4.3,0c12.8,0,14.3,0,19.4,0.3c4.7,0.2,7.2,1,8.9,1.7c2.2,0.9,3.8,1.9,5.5,3.6
	s2.7,3.3,3.6,5.5c0.7,1.7,1.4,4.2,1.7,8.9c0.2,5.1,0.3,6.6,0.3,19.4s-0.1,14.3-0.3,19.4c-0.2,4.7-1,7.2-1.7,8.9
	c-0.9,2.2-1.9,3.8-3.6,5.5s-3.3,2.7-5.5,3.6c-1.7,0.7-4.2,1.4-8.9,1.7c-5.1,0.2-6.6,0.3-19.4,0.3s-14.3-0.1-19.4-0.3
	c-4.7-0.2-7.2-1-8.9-1.7c-2.2-0.9-3.8-1.9-5.5-3.6s-2.7-3.3-3.6-5.5c-0.7-1.7-1.4-4.2-1.7-8.9c-0.2-5.1-0.3-6.6-0.3-19.4
	s0-14.3,0.3-19.4c0.2-4.7,1-7.2,1.7-8.9c0.9-2.2,1.9-3.8,3.6-5.5s3.3-2.7,5.5-3.6c1.7-0.7,4.2-1.4,8.9-1.7
	C51,26.7,52.8,26.6,61.7,26.6L61.7,26.6z M91.6,34.6c-3.2,0-5.8,2.6-5.8,5.8s2.6,5.8,5.8,5.8s5.8-2.6,5.8-5.8S94.8,34.6,91.6,34.6
	L91.6,34.6z M66,41.3c-13.6,0-24.7,11-24.7,24.7s11,24.6,24.7,24.6c13.6,0,24.6-11,24.6-24.6S79.6,41.3,66,41.3L66,41.3z M66,50
	c8.8,0,16,7.2,16,16s-7.2,16-16,16s-16-7.2-16-16S57.2,50,66,50z"/>
</svg>
