<?xml version="1.0" encoding="utf-8"?>
<!-- Generator: Adobe Illustrator 24.2.3, SVG Export Plug-In . SVG Version: 6.00 Build 0)  -->
<svg version="1.1" id="Layer_1" xmlns="http://www.w3.org/2000/svg" xmlns:xlink="http://www.w3.org/1999/xlink" x="0px" y="0px"
	 viewBox="0 0 132 132" style="enable-background:new 0 0 132 132;" xml:space="preserve">
<style type="text/css">
	.st0{fill:url(#red_1_);}
	.st1{fill:url(#purple_1_);}
	.st2{fill:#FFFFFF;}
</style>
<radialGradient id="red_1_" cx="-246.5666" cy="-244.7046" r="65" gradientTransform="matrix(0 -1.982 -1.8439 0 -415.6723 -347.6892)" gradientUnits="userSpaceOnUse">
	<stop  offset="0" style="stop-color:#FFDD55"/>
	<stop  offset="0.1" style="stop-color:#FFDD55"/>
	<stop  offset="0.5" style="stop-color:#FF543E"/>
	<stop  offset="1" style="stop-color:#C837AB"/>
</radialGradient>
<path id="red" class="st0" d="M66,1C38.9,1,31,1,29.4,1.2c-5.6,0.5-9,1.3-12.8,3.2c-2.9,1.4-5.2,3.1-7.5,5.5
	C5,14.1,2.5,19.4,1.6,25.7C1.2,28.7,1,29.3,1,44.8C1,50,1,56.8,1,66c0,27.1,0,35,0.2,36.6c0.5,5.4,1.3,8.8,3.1,12.6
	c3.4,7.1,10,12.5,17.8,14.5c2.7,0.7,5.6,1.1,9.4,1.2c1.6,0.1,18,0.1,34.4,0.1s32.8,0,34.4-0.1c4.4-0.2,7-0.6,9.8-1.3
	c7.8-2,14.2-7.3,17.8-14.5c1.8-3.6,2.7-7.2,3.1-12.3c0.1-1.1,0.1-19,0.1-36.8c0-17.8,0-35.7-0.1-36.8c-0.4-5.2-1.3-8.7-3.1-12.4
	c-1.5-3-3.2-5.3-5.6-7.6c-4.3-4.1-9.6-6.6-15.8-7.5c-3-0.4-3.6-0.6-19.2-0.6H66z"/>
<radialGradient id="purple_1_" cx="325.7773" cy="36.0168" r="65" gradientTransform="matrix(0.1739 0.8687 3.5818 -0.7172 -206.4497 -246.8146)" gradientUnits="userSpaceOnUse">
	<stop  offset="0" style="stop-color:#3771C8"/>
	<stop  offset="0.128" style="stop-color:#3771C8"/>
	<stop  offset="1" style="stop-color:#6600FF;stop-opacity:0"/>
</radialGradient>
<path id="purple" class="st1" d="M66,1C38.9,1,31,1,29.4,1.2c-5.6,0.5-9,1.3-12.8,3.2c-2.9,1.4-5.2,3.1-7.5,5.5
	C5,14.1,2.5,19.4,1.6,25.7C1.2,28.7,1,29.3,1,44.8C1,50,1,56.8,1,66c0,27.1,0,35,0.2,36.6c0.5,5.4,1.3,8.8,3.1,12.6
	c3.4,7.1,10,12.5,17.8,14.5c2.7,0.7,5.6,1.1,9.4,1.2c1.6,0.1,18,0.1,34.4,0.1s32.8,0,34.4-0.1c4.4-0.2,7-0.6,9.8-1.3
	c7.8-2,14.2-7.3,17.8-14.5c1.8-3.6,2.7-7.2,3.1-12.3c0.1-1.1,0.1-19,0.1-36.8c0-17.8,0-35.7-0.1-36.8c-0.4-5.2-1.3-8.7-3.1-12.4
	c-1.5-3-3.2-5.3-5.6-7.6c-4.3-4.1-9.6-6.6-15.8-7.5c-3-0.4-3.6-0.6-19.2-0.6H66z"/>
<path id="logo" class="st2" d="M66,18c-13,0-14.7,0.1-19.8,0.3c-5.1,0.2-8.6,1-11.7,2.2c-3.2,1.2-5.8,2.9-8.5,5.5
	c-2.7,2.7-4.3,5.3-5.5,8.5c-1.2,3.1-2,6.5-2.2,11.7C18.1,51.3,18,53,18,66s0.1,14.7,0.3,19.8c0.2,5.1,1,8.6,2.2,11.7
	c1.2,3.2,2.9,5.8,5.5,8.5c2.7,2.7,5.3,4.3,8.5,5.5c3.1,1.2,6.5,2,11.7,2.2c5.1,0.2,6.8,0.3,19.8,0.3c13,0,14.7-0.1,19.8-0.3
	c5.1-0.2,8.6-1,11.7-2.2c3.2-1.2,5.8-2.9,8.5-5.5c2.7-2.7,4.3-5.3,5.5-8.5c1.2-3.1,2-6.5,2.2-11.7c0.2-5.1,0.3-6.8,0.3-19.8
	s-0.1-14.7-0.3-19.8c-0.2-5.1-1.1-8.6-2.2-11.7c-1.2-3.2-2.9-5.8-5.5-8.5c-2.7-2.7-5.3-4.3-8.5-5.5c-3.1-1.2-6.6-2-11.7-2.2
	C80.7,18.1,79,18,66,18L66,18z M61.7,26.6c1.3,0,2.7,0,4.3,0c12.8,0,14.3,0,19.4,0.3c4.7,0.2,7.2,1,8.9,1.7c2.2,0.9,3.8,1.9,5.5,3.6
	c1.7,1.7,2.7,3.3,3.6,5.5c0.7,1.7,1.4,4.2,1.7,8.9c0.2,5.1,0.3,6.6,0.3,19.4s-0.1,14.3-0.3,19.4c-0.2,4.7-1,7.2-1.7,8.9
	c-0.9,2.2-1.9,3.8-3.6,5.5c-1.7,1.7-3.3,2.7-5.5,3.6c-1.7,0.7-4.2,1.4-8.9,1.7c-5.1,0.2-6.6,0.3-19.4,0.3c-12.8,0-14.3-0.1-19.4-0.3
	c-4.7-0.2-7.2-1-8.9-1.7c-2.2-0.9-3.8-1.9-5.5-3.6c-1.7-1.7-2.7-3.3-3.6-5.5c-0.7-1.7-1.4-4.2-1.7-8.9c-0.2-5.1-0.3-6.6-0.3-19.4
	s0-14.3,0.3-19.4c0.2-4.7,1-7.2,1.7-8.9c0.9-2.2,1.9-3.8,3.6-5.5c1.7-1.7,3.3-2.7,5.5-3.6c1.7-0.7,4.2-1.4,8.9-1.7
	C51,26.7,52.8,26.6,61.7,26.6L61.7,26.6z M91.6,34.6c-3.2,0-5.8,2.6-5.8,5.8c0,3.2,2.6,5.8,5.8,5.8s5.8-2.6,5.8-5.8
	S94.8,34.6,91.6,34.6L91.6,34.6z M66,41.3c-13.6,0-24.7,11-24.7,24.7s11,24.6,24.7,24.6c13.6,0,24.6-11,24.6-24.6S79.6,41.3,66,41.3
	L66,41.3z M66,50c8.8,0,16,7.2,16,16c0,8.8-7.2,16-16,16c-8.8,0-16-7.2-16-16C50,57.2,57.2,50,66,50z"/>
</svg>
