<?xml version="1.0" encoding="utf-8"?>
<!-- Generator: Adobe Illustrator 24.2.3, SVG Export Plug-In . SVG Version: 6.00 Build 0)  -->
<svg version="1.1" id="svg8816" xmlns:svg="http://www.w3.org/2000/svg"
	 xmlns="http://www.w3.org/2000/svg" xmlns:xlink="http://www.w3.org/1999/xlink" x="0px" y="0px" viewBox="0 0 150 70"
	 style="enable-background:new 0 0 150 70;" xml:space="preserve">
<style type="text/css">
	.st0{fill:#210800;}
	.st1{fill:#EE2D2B;}
	.st2{fill:#FFD51F;}
</style>
<g id="nerf">
	<g id="g9784" transform="matrix(0.99783078,0,0,0.99783078,76.588416,726.30677)">
		<path id="path9786" class="st0" d="M-24.6-707.4c-0.1-0.3-0.3-0.6-0.5-0.7c-0.8-0.7-2-0.6-3.8-0.2l-10.3,2.2l-1,3.1l0.4,0.6l1.4,0
			c0,0.1-0.1,0.3-0.1,0.5c0,0-2.9,8.8-4.4,13.4c-2.2-3.8-6.9-11.8-6.9-11.8l0,0c-0.1-0.2-0.3-0.4-0.4-0.6l0,0l0,0
			c-1.3-2.1-2.4-2.3-4.7-1.8l-11.6,2.4l-1,3.1l0.4,0.6l1.4,0c0,0.1-0.1,0.3-0.1,0.5l-10.7,32.6c-0.3,0.9-0.3,1.4-0.3,1.7
			c0,0.7,0.3,1.2,0.6,1.5c0.2,0.3,0.4,0.6,0.6,0.8c0.9,0.7,2.1,0.6,3.8,0.3l10.4-2.2l1-3.1l-0.4-0.6l-1.4,0c0-0.1,0.1-0.2,0.1-0.4
			c0,0,3.8-11.6,5.6-17c2.4,4.1,8.1,14,8.1,14c0.2,0.4,0.5,0.8,0.7,1.1c1.4,2.2,2.5,2.6,5.3,2l5.7-1.2l12.1-37l0,0l0.3-0.9l0.2-0.5
			l0-0.2l0-0.1l0.1-0.5C-24-706.7-24.3-707.1-24.6-707.4"/>
	</g>
	<g id="g9788" transform="matrix(0.99783078,0,0,0.99783078,98.626506,728.55887)">
		<path id="path9790" class="st0" d="M-19-712.5l-27.8,5.8l-0.9,2.9l0.6,1c0,0,0.3,0,0.7,0c-1.1,3.3-8.6,26.4-8.6,26.4l0,0.1
			l-0.1,0.4c-0.1,0.3-0.1,0.5-0.1,0.8c0,0.6,0.2,1.1,0.6,1.4c0.1,0.4,0.3,0.8,0.6,1c0.6,0.5,1.4,0.6,2.5,0.4l22.4-4.7
			c3.1-0.6,4.2-1.3,5.1-4l2.1-6.6l-0.6-1l-3.4,0.7l-0.3,0.4c-0.8,1.1-1.1,1.3-4.6,2l0,0c0,0-5.8,1.2-9.1,1.9c0.6-2,1.3-4.1,1.3-4.1
			c0.4-1.2,0.7-1.6,3-2.1l7.2-1.6c1.8-0.4,3.1-1,3.7-2.8l2.1-5.9l-0.6-1c0,0-8.2,1.8-12,2.6c0.4-1.3,0.8-2.3,1-2.9
			c1.3-0.3,9.3-1.9,9.3-1.9c4-0.8,4.4-1.6,5.9-6.4l0.6-2L-19-712.5"/>
	</g>
	<g id="g9792" transform="matrix(0.99783078,0,0,0.99783078,110.07961,724.48074)">
		<path id="path9794" class="st0" d="M-16.2-703.3c1.1-0.2,4.9-1,4.9-1c1.4-0.3,2.2-0.4,2.6-0.4c-0.2,1.8-1.3,3.8-6.7,4.9
			c0,0-1,0.2-2.1,0.4C-16.9-701-16.4-702.6-16.2-703.3z M0.7-698.4c2.4-2.8,3.8-6.1,3.8-9.2v0c0-1.5-0.4-2.6-1.1-3.5
			c-0.4-0.9-1-1.6-1.9-2.1l0,0c-1.9-1-4.2-1.1-9-0.1l-21.4,4.5l-0.9,2.9l0.6,1c0,0,0.3,0,0.7,0c-1.1,3.3-8.7,26.5-8.7,26.5l0,0.1
			l0,0.3l0,0.3l0,0.4c0,0.8,0.3,1.2,0.6,1.5c0.1,0.5,0.4,0.8,0.6,1c0.7,0.6,1.8,0.5,2.8,0.3l9.9-2.1l1.2-3l-0.6-1c0,0-0.4,0-0.9,0
			c0.6-1.8,2.6-8,3.3-10.1c0.5-0.1,0.9-0.2,1.5-0.3c1.2,2.7,3.8,8.7,3.8,8.7c0.2,0.4,0.4,0.7,0.6,1c1.1,2.4,3,2.2,5,1.8l4.2-0.9
			c2.3-0.5,3.5-1.1,4.2-3.3l1.9-5.7l-0.6-1l-3.8,0.8c-0.6,0.1-0.9,0.1-1,0.1c-0.6-1.1-1.8-3.1-2.5-4.3
			C-3.3-694.9-1.2-696.2,0.7-698.4"/>
	</g>
	<g id="g9796" transform="matrix(0.99783078,0,0,0.99783078,152.64308,739.98204)">
		<path id="path9798" class="st0" d="M-5.5-738.3l-31,6.5l-0.9,2.9c0,0,0.9,1,1.3,1c-1.1,3.3-8.6,26.4-8.6,26.4l0,0.1l0,0.2
			c-0.1,0.3-0.1,0.6-0.1,1c0,0.5,0.9,2.1,1.3,2.4c0.6,0.5,1.5,0.6,2.5,0.4l10.2-2.2l0.9-2.9l-0.6-1c0,0-0.3,0-0.6,0
			c0.6-1.9,3-9.2,3-9.2c0.3-1,0.8-1.6,2.9-2l9.7-2c2-0.4,3.3-1,3.9-2.7l0,0l1.8-5.8l-0.6-1c0,0-10.1,2.1-14.3,3c0.4-1.3,0.8-2.4,1-3
			c1.3-0.3,12.5-2.6,12.5-2.6c2.7-0.6,4-1.2,4.7-3.1l0,0l1.6-5.2L-5.5-738.3"/>
	</g>
	<g id="g9800" transform="matrix(0.99783078,0,0,0.99783078,61.683817,694.70846)">
		<path id="path9802" class="st2" d="M-28.3-636.2c-2.5,0.5-3,0.4-4.3-1.9l-9.9-17.1l-6.5,19.8c-0.2,0.7-0.3,1.1-0.3,1.5
			c0,0.9,0.3,1.1,1.5,1.2l-0.2,0.8l-9.6,2c-2.2,0.5-3,0.2-3-0.7c0-0.2,0-0.5,0.2-1.3l10.7-32.6c0.2-0.8,0.3-1.2,0.3-1.5
			c0-0.9-0.3-1.2-1.5-1.2l0.2-0.8l10.8-2.3c1.9-0.4,2.4-0.2,3.3,1.2l8.7,14.9l5.3-16.1c0.2-0.8,0.3-1.2,0.3-1.5
			c0-0.9-0.3-1.2-1.5-1.2l0.2-0.8l9.5-2c2.3-0.5,3-0.4,3,0.5c0,0.2-0.1,0.3-0.1,0.6c-0.1,0.2-0.2,0.7-0.4,1.2l-11.9,36.3
			L-28.3-636.2"/>
	</g>
	<g id="g9804" transform="matrix(0.99783078,0,0,0.99783078,89.402558,705.98295)">
		<path id="path9806" class="st2" d="M-21.3-661.6c3.5-0.7,4.2-1.1,5.3-2.5l0.8-0.2l-1.4,4.5c-0.6,2.1-1.3,2.5-4.1,3.1l-22.4,4.7
			c-1.1,0.2-1.6,0-1.6-0.6c0-0.2,0.1-0.5,0.1-0.8l8.8-26.8c0.2-0.6,0.3-0.9,0.3-1.2c0-0.8-0.3-1-1.2-1l0.2-0.6l25-5.2
			c-1.4,4.6-1.6,4.8-4.9,5.5l-10,2l-2.3,6.9l12.9-2.8l-1.3,3.7c-0.4,1.1-1,1.6-2.8,1.9l-7.2,1.6c-2.6,0.5-3.4,1.2-4,2.9l-2.4,7.4
			L-21.3-661.6"/>
	</g>
	<g id="g9808" transform="matrix(0.99783078,0,0,0.99783078,110.93674,720.683)">
		<path id="path9810" class="st2" d="M-16-694.7c5.3-1.1,7.7-3.2,7.7-6.8c0-1.7-1.2-2-4.8-1.3l-5.6,1.2l-2.6,7.9L-16-694.7z
			 M-3.6-681.3c-0.5,1.5-1.2,2-3.3,2.4l-4.2,0.9c-2.2,0.5-3,0.3-3.6-1.1l-4.7-10.6l-3.3,0.7l-3.7,11.3c-0.2,0.6-0.3,0.9-0.3,1.2
			c0,0.7,0.2,0.9,1.2,1l-0.3,0.6l-9.3,1.9c-1.4,0.3-1.9,0.1-1.9-0.5c0-0.1,0.1-0.4,0.1-0.7l8.8-27c0.2-0.6,0.3-0.9,0.3-1.2
			c0-0.8-0.3-1-1.2-1l0.2-0.6l20.7-4.4c4.4-0.9,6.5-0.9,8.1-0.1c1.2,0.7,1.7,1.8,1.7,3.5c0,2.7-1.2,5.8-3.5,8.4
			c-2,2.3-4.3,3.6-8.5,4.9l3.7,6.4c0.5,0.9,1,1,2.5,0.7l1.6-0.3L-3.6-681.3"/>
	</g>
	<g id="g9812" transform="matrix(0.99783078,0,0,0.99783078,147.15401,729.03085)">
		<path id="path9814" class="st2" d="M-6.9-713.6l-1.2,3.7c-0.4,1.1-1,1.5-2.9,1.9l-9.7,2.1c-2.3,0.5-3.3,1.2-3.9,2.9l-3.1,9.7
			c-0.2,0.6-0.3,0.9-0.3,1.2c0,0.7,0.3,0.9,1.2,1l-0.2,0.6l-9.5,2c-1,0.2-1.6,0-1.6-0.5c0-0.2,0.1-0.5,0.1-0.8l8.8-26.9
			c0.2-0.6,0.3-0.9,0.3-1.2c0-0.8-0.3-1-1.2-1l0.2-0.6l28.1-5.9l-1,3.1c-0.5,1.3-1.2,1.8-3.8,2.3l-13.3,2.8l-2.3,7L-6.9-713.6"/>
	</g>
</g>
</svg>