<?xml version="1.0" encoding="utf-8"?>
<!-- Generator: Adobe Illustrator 24.2.3, SVG Export Plug-In . SVG Version: 6.00 Build 0)  -->
<svg version="1.1" id="svg8816" xmlns:svg="http://www.w3.org/2000/svg"
	 xmlns="http://www.w3.org/2000/svg" xmlns:xlink="http://www.w3.org/1999/xlink" x="0px" y="0px" viewBox="0 0 150 70"
	 style="enable-background:new 0 0 150 70;" xml:space="preserve">
<style type="text/css">
	.st0{fill:#210800;}
	.st1{fill:#EE2D2B;}
	.st2{fill:#FFD51F;}
</style>
<g id="woosh">
	<g id="g9776" transform="matrix(0.99783078,0,0,0.99783078,154.81037,723.66252)">
		<path id="path9778" class="st0" d="M-5-701.5c2.5-16.7-28.5-25.8-67.6-19c-18.7,3.3-37.7,8.3-51.1,15.6
			c10.3-4.1,23.8-6.5,36.6-8.5c35.5-5.7,63.5,1.7,61.6,15.7c-1.9,13.9-31.3,31.3-65.9,37.2c-16.8,2.9-32.6,1.6-43.2-1
			c11.3,5.7,32.4,8.6,55.8,4.3C-40.6-664.2-7.4-684.8-5-701.5"/>
	</g>
	<g id="g9780" transform="matrix(0.99783078,0,0,0.99783078,153.77362,724.85193)">
		<path id="path9782" class="st1" d="M-5.2-704.1c2.5-16.7-28.1-25.4-67.2-18.6c-18.7,3.3-36.3,9.3-49.7,16.6
			c10.3-4.1,22.4-7.5,35.2-9.5c35.5-5.7,63.5,1.7,61.6,15.7c-1.9,13.9-31.3,31.3-65.9,37.2c-16.8,2.9-31.7,2.7-42.3,0.1
			c11.3,5.7,31.2,7.2,54.5,2.9C-40.9-666.8-7.7-687.4-5.2-704.1"/>
	</g>
</g>
</svg>
