<svg xmlns="http://www.w3.org/2000/svg" viewBox="0 0 36.42 27.59"><defs><style>.cls-1{fill:#fff;}</style></defs><g id="Layer_2" data-name="Layer 2"><g id="Layer_1-2" data-name="Layer 1"><path class="cls-1" d="M2.5,16.29a2.5,2.5,0,1,1,0-5H33.89a2.52,2.52,0,0,1,2.53,2.49,2.56,2.56,0,0,1-2.53,2.51H2.5Z"/><path class="cls-1" d="M2.5,27.59A2.53,2.53,0,0,1,0,25.07a2.49,2.49,0,0,1,2.5-2.48H33.89a2.51,2.51,0,0,1,2.53,2.48,2.56,2.56,0,0,1-2.53,2.52H2.5Z"/><path class="cls-1" d="M2.5,5A2.53,2.53,0,0,1,0,2.48,2.5,2.5,0,0,1,2.5,0H33.89a2.52,2.52,0,0,1,2.53,2.48A2.56,2.56,0,0,1,33.89,5H2.5Z"/></g></g></svg>